<svg width="43" height="25" viewBox="0 0 43 25" fill="none" xmlns="http://www.w3.org/2000/svg">
<path d="M4.03125 19.7369V15.7895H21.5V9.21094H0V25H21.5V19.7369H4.03125Z" fill="#78B9EB"/>
<path d="M21.5 0H0V3.94776H21.5V0Z" fill="#78B9EB"/>
<path d="M43 0H21.5V3.94776H43V0Z" fill="#5A8BB0"/>
<path d="M21.5 15.7895V19.7369V25H43V9.21094H21.5V15.7895ZM29.5625 14.4737C30.6615 14.4737 31.6371 14.9905 32.25 15.7894C32.8629 14.9905 33.8384 14.4737 34.9375 14.4737C36.7929 14.4737 38.2969 15.9463 38.2969 17.7632C38.2969 19.58 36.7929 21.0526 34.9375 21.0526C33.8384 21.0526 32.8629 20.5358 32.25 19.737C31.6371 20.5358 30.6615 21.0526 29.5625 21.0526C27.707 21.0526 26.2031 19.58 26.2031 17.7632C26.2031 15.9463 27.707 14.4737 29.5625 14.4737Z" fill="#5A8BB0"/>
<path d="M0 3.94775V9.21091H21.5H43V3.94775H21.5H0Z" fill="#3C5D76"/>
<path d="M21.5 15.7896H4.03125V19.7369H21.5V15.7896Z" fill="white"/>
<path d="M29.562 21.0523C30.6611 21.0523 31.6366 20.5355 32.2495 19.7367C31.8277 19.1868 31.5776 18.5035 31.5776 17.7629C31.5776 17.0222 31.8277 16.3389 32.2495 15.789C31.6366 14.9902 30.6611 14.4734 29.562 14.4734C27.7066 14.4734 26.2026 15.946 26.2026 17.7629C26.2026 19.5797 27.7066 21.0523 29.562 21.0523Z" fill="#FFDA44"/>
<path d="M32.25 19.7367C32.8629 20.5355 33.8384 21.0523 34.9375 21.0523C36.7929 21.0523 38.2969 19.5797 38.2969 17.7629C38.2969 15.946 36.7929 14.4734 34.9375 14.4734C33.8384 14.4734 32.8629 14.9902 32.25 15.789C31.8282 16.3389 31.5781 17.0222 31.5781 17.7629C31.5781 18.5035 31.8282 19.1868 32.25 19.7367Z" fill="#FF5023"/>
</svg>
